<?xml version="1.0" encoding="UTF-8"?>
<svg width="300px" height="24px" viewBox="0 0 300 24" version="1.1" xmlns="http://www.w3.org/2000/svg" xmlns:xlink="http://www.w3.org/1999/xlink">
    <!-- Generator: Sketch 50.2 (55047) - http://www.bohemiancoding.com/sketch -->
    <title>Group 3</title>
    <desc>Created with Sketch.</desc>
    <defs></defs>
    <g id="Page-1" stroke="none" stroke-width="1" fill="none" fill-rule="evenodd">
        <g id="Spirit-Fish;-UI" transform="translate(-50.000000, -45.000000)" fill="#020303">
            <g id="Group-3" transform="translate(50.000000, 45.000000)">
                <path d="M16.0110004,11.0387425 C15.242713,10.5169895 14.468046,10.098444 13.706442,9.79295014 C13.010153,9.51476659 11.7105352,8.88250238 9.59827639,8.35789139 C6.38659802,7.55986027 6.64785827,6.39155287 7.29888237,6.04922198 C8.87738036,5.2197523 11.8050142,5.21086059 14.890923,5.96951413 L16.2932223,6.31406796 L18.2183458,1.06192442 L16.3321075,0.642108606 C14.421566,0.215624008 12.472443,0 10.5397247,0 C7.77431527,0 5.42327679,0.53096221 3.55192428,1.58018419 C0.807476456,3.11908542 0.231488736,5.33883773 0.231488736,6.92918387 C0.231488736,7.86979994 0.472091201,8.7516672 0.946308939,9.54969832 C1.37313528,10.267704 1.97008458,10.9129883 2.72014454,11.4655446 C3.39699087,11.9647507 4.09297603,12.3632899 4.7853157,12.6481423 C5.40474554,12.9053668 6.6906928,13.3563036 8.71789009,14.0285805 C10.9610828,14.7726262 11.8126089,15.327088 12.1200454,15.5909813 C12.5313784,15.9441092 12.5881873,16.2349952 12.5881873,16.4966656 C12.5881873,16.9104478 12.4867211,17.3563036 11.7518507,17.8116862 C10.1560366,18.7993014 7.25908575,18.9542712 3.24874087,17.6424262 L1.72614042,17.1441728 L0,22.3064465 L1.53262555,22.8869482 C3.48174856,23.6252779 5.75957341,24 8.30169643,24 C11.0169803,24 13.427258,23.3896475 15.4672146,22.1841855 C17.7778488,20.818355 19,18.7500794 19,16.2013338 C19,15.0755795 18.6965128,14.0419181 18.0962218,13.127342 C17.5661065,12.3204192 16.8646531,11.617974 16.0110004,11.0387425" id="Fill-1"></path>
                <path d="M35.5019625,5.63108706 L37.4765063,5.63108706 C38.7737941,5.63108706 39.8135724,5.88030825 40.5678377,6.37284801 C41.3029269,6.85391048 41.3029269,7.2559436 41.3029269,7.47270044 C41.3029269,8.61747828 39.9630253,9.19822922 37.3206613,9.19822922 L35.5019625,9.19822922 L35.5019625,5.63108706 Z M44.7939155,1.71536317 C42.961215,0.577143794 40.5520097,0 37.6326557,0 L29,0 L29,24 L35.5019625,24 L35.5019625,14.830628 L37.7684113,14.830628 C40.6256708,14.830628 43.0044376,14.2183965 44.8392688,13.0122971 C47.4518031,11.2946385 48,8.97327431 48,7.32775865 C48,5.67666831 47.4435847,3.36219052 44.7939155,1.71536317 Z" id="Fill-6"></path>
                <polygon id="Fill-8" points="72 18.368585 67.0923818 18.368585 67.0923818 5.63108706 72 5.63108706 72 0 55 0 55 5.63108706 60.0965617 5.63108706 60.0965617 18.368585 55 18.368585 55 24 72 24"></polygon>
                <path d="M85.8766604,5.63108706 L87.9646721,5.63108706 C89.3370425,5.63108706 90.4364196,5.88030825 91.2341521,6.37284801 C92.0119253,6.85391048 92.0119253,7.2559436 92.0119253,7.47270044 C92.0119253,8.61747828 90.5944853,9.19822922 87.800168,9.19822922 L85.8766604,9.19822922 L85.8766604,5.63108706 Z M102,24 L92.7549304,14.2656173 C93.8623557,13.9649123 94.873847,13.5582882 95.752061,13.0122971 C98.5148296,11.2946385 99.0946182,8.97327431 99.0946182,7.32775865 C99.0946182,5.67666831 98.5061376,3.36219052 95.7040941,1.71536317 C93.7654559,0.577143794 91.2177339,0 88.1298201,0 L79,0 L79,24 L85.8766604,24 L85.8766604,16.3692409 L92.8927147,24 L102,24 Z" id="Fill-10"></path>
                <polygon id="Fill-12" points="126 18.368585 121.092054 18.368585 121.092054 5.63108706 126 5.63108706 126 0 109 0 109 5.63108706 114.096234 5.63108706 114.096234 18.368585 109 18.368585 109 24 126 24"></polygon>
                <polygon id="Fill-14" points="133 0 133 5.48622023 141.707563 5.48622023 141.707563 24 148.332253 24 148.332253 5.48622023 157 5.48622023 157 0"></polygon>
                <g id="Group-2" transform="translate(199.000000, 0.000000)">
                    <path d="M70.3030296,11.03906 C69.4929693,10.5169895 68.6761825,10.098444 67.8731689,9.7932677 C67.1390217,9.51476659 65.7687417,8.88250238 63.5416363,8.35789139 C60.1553343,7.55986027 60.43112,6.39155287 61.1172209,6.04922198 C62.7815441,5.2197523 65.8683577,5.21086059 69.122052,5.96951413 L70.6009166,6.31406796 L72.6303915,1.06192442 L70.6415957,0.642108606 C68.6271752,0.215624008 66.5720756,0 64.5342726,0 C61.6185038,0 59.1396359,0.53096221 57.1668555,1.58050175 C54.2728677,3.11908542 53.6655627,5.33883773 53.6655627,6.92918387 C53.6655627,7.86979994 53.9192471,8.7516672 54.4195691,9.54969832 C54.8692823,10.267704 55.4986886,10.9133058 56.2895304,11.4655446 C57.0034982,11.9647507 57.7370047,12.3632899 58.4669879,12.6481423 C59.1200971,12.9053668 60.4759632,13.3566211 62.6133822,14.0285805 C64.9785405,14.7729438 65.8763654,15.327088 66.2005176,15.5909813 C66.6342154,15.9444268 66.6941131,16.2349952 66.6941131,16.4966656 C66.6941131,16.9107653 66.5871301,17.3563036 65.8123037,17.8116862 C64.1297228,18.7993014 61.0755808,18.9545888 56.8468673,17.6424262 L55.2414808,17.1441728 L53.4214876,22.3064465 L55.0374443,22.8869482 C57.0925439,23.6252779 59.4942175,24 62.1745594,24 C65.0377976,24 67.5788054,23.3896475 69.7296773,22.184503 C72.1659441,20.818355 73.4545455,18.7500794 73.4545455,16.2013338 C73.4545455,15.0758971 73.1345572,14.0422356 72.5016275,13.127342 C71.9426891,12.3204192 71.2030966,11.617974 70.3030296,11.03906" id="Fill-4"></path>
                    <polygon id="Fill-16" points="0 24 6.67490216 24 6.67490216 14.7126072 17.3228116 14.7126072 17.3228116 9.27562131 6.67490216 9.27562131 6.67490216 6.26457214 18.3636364 6.26457214 18.3636364 0.827586207 0 0.827586207"></polygon>
                    <polygon id="Fill-18" points="28.3801653 6.26457214 33.3849569 6.26457214 33.3849569 18.5630141 28.3801653 18.5630141 28.3801653 24 45.0743802 24 45.0743802 18.5630141 40.2548083 18.5630141 40.2548083 6.26457214 45.0743802 6.26457214 45.0743802 0.827586207 28.3801653 0.827586207"></polygon>
                    <polygon id="Fill-20" points="94.1860109 8.75731558 87.7809313 8.75731558 87.7809313 0.827586207 80.9669421 0.827586207 80.9669421 24 87.7809313 24 87.7809313 14.2091826 94.1860109 14.2091826 94.1860109 24 101 24 101 0.827586207 94.1860109 0.827586207"></polygon>
                </g>
            </g>
        </g>
    </g>
</svg>